name 900006_30ik_lsw.mot
datacolumns 165
datarows 4
range 0.97500000 1.00000000
cursor 1.0 1.0 0.0
keys m_key
wrap
enforce_loops no
enforce_constraints no
calc_derivatives 0.008333
event_color 1.000000 0.000000 1.000000
endheader

                time	          calcn_r_tx	          calcn_r_ty	          calcn_r_tz	          calcn_r_r1	          calcn_r_r2	          calcn_r_r3	          calcn_l_tx	          calcn_l_ty	          calcn_l_tz	          calcn_l_r1	          calcn_l_r2	          calcn_l_r3	           pelvis_tz	           pelvis_tx	           pelvis_ty	         pelvis_tilt	         pelvis_list	     pelvis_rotation	       hip_flexion_r	     hip_adduction_r	      hip_rotation_r	        knee_angle_r	       ankle_angle_r	    subtalar_angle_r	         mtp_angle_r	       hip_flexion_l	     hip_adduction_l	      hip_rotation_l	        knee_angle_l	       ankle_angle_l	    subtalar_angle_l	         mtp_angle_l	    lumbar_extension	      lumbar_bending	     lumbar_rotation	     ground_force_px	     ground_force_py	     ground_force_pz	     ground_force_vx	     ground_force_vy	     ground_force_vz	     ground_force_px	     ground_force_py	     ground_force_pz	     ground_force_vx	     ground_force_vy	     ground_force_vz	     ground_torque_x	     ground_torque_y	     ground_torque_z	     ground_torque_x	     ground_torque_y	     ground_torque_z	           midhip_px	           midhip_py	           midhip_pz	            hip_r_px	            hip_r_py	            hip_r_pz	            hip_l_px	            hip_l_py	            hip_l_pz	           knee_r_px	           knee_r_py	           knee_r_pz	           knee_l_px	           knee_l_py	           knee_l_pz	          ankle_r_px	          ankle_r_py	          ankle_r_pz	          ankle_l_px	          ankle_l_py	          ankle_l_pz	          midasis_px	          midasis_py	          midasis_pz	           asis_r_px	           asis_r_py	           asis_r_pz	           asis_l_px	           asis_l_py	           asis_l_pz	           psis_r_px	           psis_r_py	           psis_r_pz	           psis_l_px	           psis_l_py	           psis_l_pz	     epicondLat_r_px	     epicondLat_r_py	     epicondLat_r_pz	     epicondLat_l_px	     epicondLat_l_py	     epicondLat_l_pz	     epicondMed_r_px	     epicondMed_r_py	     epicondMed_r_pz	     epicondMed_l_px	     epicondMed_l_py	     epicondMed_l_pz	   malleolusLat_r_px	   malleolusLat_r_py	   malleolusLat_r_pz	   malleolusLat_l_px	   malleolusLat_l_py	   malleolusLat_l_pz	  malleolusMedv_r_px	  malleolusMedv_r_py	  malleolusMedv_r_pz	  malleolusMedv_l_px	  malleolusMedv_l_py	  malleolusMedv_l_pz	             neck_px	             neck_py	             neck_pz	    subclavicle_r_px	    subclavicle_r_py	    subclavicle_r_pz	    subclavicle_l_px	    subclavicle_l_py	    subclavicle_l_pz	     sternalnotch_px	     sternalnotch_py	     sternalnotch_pz	   xyphoidprocess_px	   xyphoidprocess_py	   xyphoidprocess_pz	      thighwand_r_px	      thighwand_r_py	      thighwand_r_pz	      thighwand_l_px	      thighwand_l_py	      thighwand_l_pz	      upperleg1_r_px	      upperleg1_r_py	      upperleg1_r_pz	      upperleg1_l_px	      upperleg1_l_py	      upperleg1_l_pz	      upperleg2_r_px	      upperleg2_r_py	      upperleg2_r_pz	      upperleg2_l_px	      upperleg2_l_py	      upperleg2_l_pz	      shankwand_r_px	      shankwand_r_py	      shankwand_r_pz	      shankwand_l_px	      shankwand_l_py	      shankwand_l_pz	      lowerleg1_r_px	      lowerleg1_r_py	      lowerleg1_r_pz	      lowerleg1_l_px	      lowerleg1_l_py	      lowerleg1_l_pz	            toe_r_px	            toe_r_py	            toe_r_pz	            toe_l_px	            toe_l_py	            toe_l_pz	
          0.97500000	          1.28588934	          0.03037976	         -0.14510924	          0.29092780	          0.40953874	         14.20914053	          0.70293291	          0.08538002	         -0.25603966	         -1.15063410	          5.22411411	        -19.41219911	         -0.23516670	          1.14739508	          0.79469730	          2.42254961	         -2.26827844	          2.73499133	         25.04429864	          1.57168034	         -2.98293412	        -14.66480762	          1.55989650	          0.00000000	          0.00000000	        -24.91537546	          1.09700436	         -5.19355768	         -9.50155258	         13.01896474	          0.00000000	          0.00000000	         -8.77248049	          5.34542405	         -3.23782127	          1.31485022	          0.00000000	         -0.15692628	        -71.53461340	        361.74441150	          7.91892867	          0.86779218	          0.00000000	         -0.24988692	         90.66121614	        419.81415404	          4.39305839	          0.00000000	         -0.62623200	          0.00000000	          0.00000000	          0.44602480	          0.00000000	          1.11024640	          0.73330950	         -0.23573710	          1.10507835	          0.73313123	         -0.17854257	          1.11541444	          0.73348797	         -0.29293185	          1.21587273	          0.39873562	         -0.15426285	          0.92025965	          0.42817252	         -0.27610652	          1.32770224	          0.06953885	         -0.15683031	          0.75660073	          0.09812095	         -0.26611409	          1.14350598	          0.80745316	         -0.23300800	          1.14859999	          0.81360962	         -0.12344030	          1.13841252	          0.80129708	         -0.34257577	          0.96409307	          0.83654400	         -0.18234550	          0.96658225	          0.83474351	         -0.23574883	          1.24554779	          0.41648255	         -0.09528515	          0.93568052	          0.40437018	         -0.33350783	          1.22116986	          0.40157585	         -0.21494605	          0.94633056	          0.41122581	         -0.21318054	          1.32113614	          0.06740364	         -0.11998511	          0.75035283	          0.10051629	         -0.30199376	          1.33466488	          0.06445615	         -0.18953571	          0.75025937	          0.10406167	         -0.23270176	          1.01391766	          1.22730752	         -0.21747838	          1.11834942	          1.15076795	         -0.16712776	          1.12025795	          1.15427129	         -0.27290631	          1.11651434	          1.15250403	         -0.22314786	          1.11966455	          1.05053485	         -0.22898475	          1.29214626	          0.58913473	         -0.13536254	          1.09516925	          0.50502717	         -0.36043028	          1.23114191	          0.59923560	         -0.09263074	          1.09752020	          0.55258480	         -0.29529640	          1.24507694	          0.54228442	         -0.09814330	          1.06681138	          0.50349871	         -0.28430679	          1.41119478	          0.21641851	         -0.12617647	          0.80056058	          0.18643292	         -0.39508125	          1.34464110	          0.18026731	         -0.14723178	          0.79350980	          0.18248921	         -0.31610030	          1.41124163	          0.07463506	         -0.14284198	          0.83271907	          0.05086618	         -0.26313452	
          0.98333333	          1.28841408	          0.03010150	         -0.14448039	          0.12754766	          1.05939442	         12.13736425	          0.70759899	          0.09282163	         -0.25667916	         -1.25564440	          5.24646982	        -22.12866717	         -0.23596393	          1.16012850	          0.79538755	          2.64328341	         -2.60723348	          2.61665752	         24.53147398	          1.98261638	         -2.48288778	        -15.55168452	          0.66353029	          0.00000000	          0.00000000	        -24.89724820	          0.73868061	         -5.30199801	        -11.46305502	         12.00518805	          0.00000000	          0.00000000	         -9.06298201	          5.84791948	         -3.15258961	          1.31670752	          0.00000000	         -0.15650655	        -71.27051676	        362.30592430	          4.45292665	          0.86940912	          0.00000000	         -0.24936629	         88.94635496	        376.08797333	          0.58175129	          0.00000000	         -0.71743929	          0.00000000	          0.00000000	          0.41959879	          0.00000000	          1.12379623	          0.73364532	         -0.23530829	          1.11854613	          0.73372397	         -0.17812225	          1.12904627	          0.73356678	         -0.29249447	          1.22683923	          0.40024098	         -0.15433856	          0.93507462	          0.42704031	         -0.27611041	          1.33106495	          0.06835171	         -0.15687390	          0.76121829	          0.10300158	         -0.26773901	          1.15679488	          0.80792109	         -0.23283490	          1.16173308	          0.81458819	         -0.12327769	          1.15185710	          0.80125445	         -0.34239198	          0.97691203	          0.83683320	         -0.18245790	          0.98002268	          0.83468465	         -0.23590543	          1.25706105	          0.41708315	         -0.09544479	          0.95033877	          0.40357580	         -0.33359012	          1.23111792	          0.40269012	         -0.21449892	          0.96162568	          0.41042052	         -0.21256131	          1.32508136	          0.06649847	         -0.11991870	          0.75534315	          0.10558771	         -0.30366942	          1.33768489	          0.06276408	         -0.18959729	          0.75469446	          0.10909693	         -0.23436898	          1.02590302	          1.22794155	         -0.21575828	          1.13014598	          1.15091579	         -0.16572430	          1.13216213	          1.15482363	         -0.27163244	          1.12836748	          1.15287315	         -0.22181178	          1.13126495	          1.05091988	         -0.22803429	          1.30491203	          0.58956379	         -0.13638378	          1.10969161	          0.50509261	         -0.36013413	          1.24474164	          0.60079581	         -0.09310593	          1.11179341	          0.55249559	         -0.29523633	          1.25801760	          0.54350772	         -0.09857605	          1.08143191	          0.50330810	         -0.28410938	          1.41868720	          0.21320780	         -0.12817995	          0.80912332	          0.19003187	         -0.39629979	          1.35068257	          0.17867264	         -0.14841751	          0.80113916	          0.18615068	         -0.31729369	          1.41514918	          0.07039266	         -0.14369416	          0.83526379	          0.05176048	         -0.26418478	
          0.99166667	          1.29042165	          0.03032484	         -0.14408614	          0.06676123	          1.82096505	         10.13225380	          0.71298151	          0.10158337	         -0.25725140	         -1.35931729	          5.21113418	        -25.42367508	         -0.23548878	          1.17298986	          0.79662722	          2.81962040	         -2.92672047	          2.48365458	         23.99278762	          2.52665997	         -1.87734835	        -16.40033358	         -0.12752445	          0.00000000	          0.00000000	        -24.65678070	          0.32842385	         -5.26358053	        -13.71130934	         10.50215201	          0.00000000	          0.00000000	         -9.37003997	          6.39156020	         -3.04499918	          1.31838892	          0.00000000	         -0.15582449	        -68.63881281	        353.25649424	         -0.13081143	          0.87098340	          0.00000000	         -0.24883575	         83.84196375	        324.60411644	         -3.89872914	          0.00000000	         -0.78543815	          0.00000000	          0.00000000	          0.32241643	          0.00000000	          1.13724048	          0.73452872	         -0.23471495	          1.13187129	          0.73489875	         -0.17754224	          1.14260957	          0.73415865	         -0.29188770	          1.23734552	          0.40227159	         -0.15444695	          0.95126507	          0.42575393	         -0.27611202	          1.33363400	          0.06738283	         -0.15682996	          0.76681532	          0.10825233	         -0.26933607	          1.16997272	          0.80888607	         -0.23253047	          1.17469994	          0.81610571	         -0.12299099	          1.16524576	          0.80166693	         -0.34206972	          0.98966406	          0.83756073	         -0.18276625	          0.99340910	          0.83498681	         -0.23623536	          1.26809921	          0.41798216	         -0.09562447	          0.96609684	          0.40265713	         -0.33370339	          1.24059341	          0.40438459	         -0.21428088	          0.97814070	          0.40966933	         -0.21155384	          1.32825506	          0.06581254	         -0.11976688	          0.76126356	          0.11105131	         -0.30530336	          1.33956182	          0.06162239	         -0.18965451	          0.76023177	          0.11450737	         -0.23600423	          1.03801852	          1.22914962	         -0.21408981	          1.14204088	          1.15168694	         -0.16432271	          1.14418294	          1.15602191	         -0.27040361	          1.14032864	          1.15387671	         -0.22049958	          1.14300235	          1.05194247	         -0.22712694	          1.31728923	          0.59013410	         -0.13755092	          1.12512905	          0.50552592	         -0.35956379	          1.25803765	          0.60278635	         -0.09377295	          1.12676019	          0.55301876	         -0.29469144	          1.27059638	          0.54525523	         -0.09921229	          1.09693560	          0.50362067	         -0.28344114	          1.42537441	          0.21023166	         -0.13020631	          0.81850494	          0.19399399	         -0.39749656	          1.35590797	          0.17749470	         -0.14933437	          0.80979833	          0.19022759	         -0.31842942	          1.41823794	          0.06649398	         -0.14442944	          0.83818016	          0.05254109	         -0.26517754	
          1.00000000	          1.29177213	          0.03071478	         -0.14264537	         -0.04664650	          2.51838779	          8.30345348	          0.71975967	          0.11081144	         -0.25952601	         -1.45325864	          5.01352307	        -29.19127204	         -0.23478138	          1.18570476	          0.79821358	          3.05960217	         -3.27274266	          2.27319674	         23.29039368	          3.07165398	         -1.19647255	        -17.17033175	         -0.72550689	          0.00000000	          0.00000000	        -24.28116293	         -0.17523419	         -5.05439870	        -16.16529209	          8.51546762	          0.00000000	          0.00000000	         -9.66137360	          6.92786729	         -2.90492486	          1.31994580	          0.00000000	         -0.15507565	        -65.38591272	        346.17546205	         -4.57712159	          0.87253027	          0.00000000	         -0.24831612	         74.71925821	        266.10535340	         -8.33568226	          0.00000000	         -0.81051135	          0.00000000	          0.00000000	          0.18836621	          0.00000000	          1.15054238	          0.73594826	         -0.23394500	          1.14502998	          0.73662710	         -0.17678923	          1.15605466	          0.73526922	         -0.29110072	          1.24731683	          0.40463544	         -0.15453906	          0.96892577	          0.42414079	         -0.27619731	          1.33561673	          0.06660909	         -0.15671980	          0.77356221	          0.11379298	         -0.27089550	          1.18300405	          0.81033048	         -0.23207477	          1.18748324	          0.81811594	         -0.12255553	          1.17852500	          0.80254554	         -0.34159381	          1.00234290	          0.83869998	         -0.18325383	          1.00666648	          0.83566832	         -0.23671422	          1.27856940	          0.41906202	         -0.09578087	          0.98292989	          0.40160985	         -0.33390794	          1.24961794	          0.40644730	         -0.21422829	          0.99595180	          0.40884954	         -0.21016702	          1.33079711	          0.06529601	         -0.11956286	          0.76826532	          0.11683461	         -0.30688255	          1.34059761	          0.06097333	         -0.18970231	          0.76708376	          0.12021204	         -0.23759429	          1.05026038	          1.23085056	         -0.21252053	          1.15406316	          1.15305788	         -0.16297524	          1.15630355	          1.15780688	         -0.26921212	          1.15240264	          1.15547144	         -0.21923236	          1.15491178	          1.05355822	         -0.22625218	          1.32924818	          0.59075871	         -0.13875967	          1.14146469	          0.50631131	         -0.35875579	          1.27096314	          0.60498599	         -0.09459755	          1.14234767	          0.55411177	         -0.29369295	          1.28273495	          0.54733220	         -0.09998673	          1.11330950	          0.50440387	         -0.28233203	          1.43128284	          0.20750344	         -0.13203283	          0.82876196	          0.19829155	         -0.39867333	          1.36044446	          0.17661613	         -0.14988775	          0.81960075	          0.19464826	         -0.31955862	          1.42065219	          0.06303203	         -0.14500925	          0.84154836	          0.05323229	         -0.26606413	
